<svg viewBox="0 0 1024 1024" fill="none" xmlns="http://www.w3.org/2000/svg">
  <circle cx="512" cy="512" r="512" fill="#f8fafc"/>
  <g transform="translate(256, 256) scale(8)">
    <defs>
      <linearGradient id="grad1" x1="0%" y1="0%" x2="100%" y2="100%">
        <stop offset="0%" style="stop-color:#38bdf8;stop-opacity:1" />
        <stop offset="100%" style="stop-color:#2dd4bf;stop-opacity:1" />
      </linearGradient>
    </defs>
    <path d="M12 30C12 21.1634 19.1634 14 28 14H48C51.3137 14 54 16.6863 54 20V42C54 45.3137 51.3137 48 48 48H28C19.1634 48 12 40.8366 12 32V30Z" fill="url(#grad1)"/>
    <rect x="44" y="8" width="4" height="8" rx="2" fill="url(#grad1)"/>
    <circle cx="46" cy="6" r="3" fill="url(#grad1)"/>
    <circle cx="28" cy="31" r="5" fill="white"/>
    <circle cx="42" cy="31" r="5" fill="white"/>
    <circle cx="29" cy="30" r="2" fill="#1e293b"/>
    <circle cx="43" cy="30" r="2" fill="#1e293b"/>
  </g>
</svg>
