<svg width="1200" height="630" viewBox="0 0 1200 630" fill="none" xmlns="http://www.w3.org/2000/svg">
  <rect width="1200" height="630" fill="#f8fafc"/>
  <g transform="translate(80, 200) scale(4)">
      <defs>
        <linearGradient id="grad1" x1="0%" y1="0%" x2="100%" y2="100%">
          <stop offset="0%" style="stop-color:#38bdf8;stop-opacity:1" />
          <stop offset="100%" style="stop-color:#2dd4bf;stop-opacity:1" />
        </linearGradient>
      </defs>
      <path d="M12 30C12 21.1634 19.1634 14 28 14H48C51.3137 14 54 16.6863 54 20V42C54 45.3137 51.3137 48 48 48H28C19.1634 48 12 40.8366 12 32V30Z" fill="url(#grad1)"/>
      <rect x="44" y="8" width="4" height="8" rx="2" fill="url(#grad1)"/>
      <circle cx="46" cy="6" r="3" fill="url(#grad1)"/>
      <circle cx="28" cy="31" r="5" fill="white"/>
      <circle cx="42" cy="31" r="5" fill="white"/>
      <circle cx="29" cy="30" r="2" fill="#1e293b"/>
      <circle cx="43" cy="30" r="2" fill="#1e293b"/>
  </g>
  <text x="400" y="280" font-family="sans-serif" font-size="60" font-weight="bold" fill="#1e293b">
    <tspan x="400" dy="0">Bot de Números Virtuais</tspan>
    <tspan x="400" dy="1.2em">para Receber SMS</tspan>
  </text>
  <text x="400" y="440" font-family="sans-serif" font-size="32" fill="#475569">
    Ative WhatsApp, Google, Uber e mais.
  </text>
  <text x="400" y="480" font-family="sans-serif" font-size="32" fill="#475569">
    Rápido, seguro e privado.
  </text>
</svg>
